{
	"patcher" : 	{
		"fileversion" : 1,
		"appversion" : 		{
			"major" : 8,
			"minor" : 1,
			"revision" : 4,
			"architecture" : "x64",
			"modernui" : 1
		}
,
		"classnamespace" : "box",
		"rect" : [ 34.0, 79.0, 1372.0, 787.0 ],
		"bglocked" : 0,
		"openinpresentation" : 0,
		"default_fontsize" : 12.0,
		"default_fontface" : 0,
		"default_fontname" : "Arial",
		"gridonopen" : 1,
		"gridsize" : [ 15.0, 15.0 ],
		"gridsnaponopen" : 1,
		"objectsnaponopen" : 1,
		"statusbarvisible" : 2,
		"toolbarvisible" : 1,
		"lefttoolbarpinned" : 0,
		"toptoolbarpinned" : 0,
		"righttoolbarpinned" : 0,
		"bottomtoolbarpinned" : 0,
		"toolbars_unpinned_last_save" : 0,
		"tallnewobj" : 0,
		"boxanimatetime" : 200,
		"enablehscroll" : 1,
		"enablevscroll" : 1,
		"devicewidth" : 0.0,
		"description" : "",
		"digest" : "",
		"tags" : "",
		"style" : "",
		"subpatcher_template" : "",
		"assistshowspatchername" : 0,
		"boxes" : [ 			{
				"box" : 				{
					"bubble" : 1,
					"id" : "obj-38",
					"maxclass" : "comment",
					"numinlets" : 1,
					"numoutlets" : 0,
					"patching_rect" : [ 427.5, 249.0, 198.0, 24.0 ],
					"text" : "Adjust delay and feedback here"
				}

			}
, 			{
				"box" : 				{
					"format" : 6,
					"id" : "obj-19",
					"maxclass" : "flonum",
					"maximum" : 1.0,
					"minimum" : 0.0,
					"numinlets" : 1,
					"numoutlets" : 2,
					"outlettype" : [ "", "bang" ],
					"parameter_enable" : 0,
					"patching_rect" : [ 371.5, 250.0, 50.0, 22.0 ]
				}

			}
, 			{
				"box" : 				{
					"format" : 6,
					"id" : "obj-17",
					"maxclass" : "flonum",
					"minimum" : 0.0,
					"numinlets" : 1,
					"numoutlets" : 2,
					"outlettype" : [ "", "bang" ],
					"parameter_enable" : 0,
					"patching_rect" : [ 290.0, 250.0, 50.0, 22.0 ]
				}

			}
, 			{
				"box" : 				{
					"fontname" : "Arial",
					"fontsize" : 12.0,
					"id" : "obj-5",
					"maxclass" : "comment",
					"numinlets" : 1,
					"numoutlets" : 0,
					"patching_rect" : [ 287.0, 228.0, 47.0, 20.0 ],
					"text" : "(msec)"
				}

			}
, 			{
				"box" : 				{
					"fontname" : "Arial",
					"fontsize" : 12.0,
					"id" : "obj-13",
					"maxclass" : "comment",
					"numinlets" : 1,
					"numoutlets" : 0,
					"patching_rect" : [ 371.5, 229.0, 54.0, 20.0 ],
					"text" : "(0.->1.0)"
				}

			}
, 			{
				"box" : 				{
					"fontname" : "Arial",
					"fontsize" : 12.0,
					"id" : "obj-7",
					"maxclass" : "newobj",
					"numinlets" : 3,
					"numoutlets" : 1,
					"outlettype" : [ "signal" ],
					"patcher" : 					{
						"fileversion" : 1,
						"appversion" : 						{
							"major" : 8,
							"minor" : 1,
							"revision" : 4,
							"architecture" : "x64",
							"modernui" : 1
						}
,
						"classnamespace" : "box",
						"rect" : [ 57.0, 79.0, 394.0, 419.0 ],
						"bglocked" : 0,
						"openinpresentation" : 0,
						"default_fontsize" : 12.0,
						"default_fontface" : 0,
						"default_fontname" : "Arial",
						"gridonopen" : 1,
						"gridsize" : [ 15.0, 15.0 ],
						"gridsnaponopen" : 1,
						"objectsnaponopen" : 1,
						"statusbarvisible" : 2,
						"toolbarvisible" : 1,
						"lefttoolbarpinned" : 0,
						"toptoolbarpinned" : 0,
						"righttoolbarpinned" : 0,
						"bottomtoolbarpinned" : 0,
						"toolbars_unpinned_last_save" : 0,
						"tallnewobj" : 0,
						"boxanimatetime" : 200,
						"enablehscroll" : 1,
						"enablevscroll" : 1,
						"devicewidth" : 0.0,
						"description" : "",
						"digest" : "",
						"tags" : "",
						"style" : "",
						"subpatcher_template" : "",
						"assistshowspatchername" : 0,
						"boxes" : [ 							{
								"box" : 								{
									"fontname" : "Arial",
									"fontsize" : 12.0,
									"id" : "obj-1",
									"maxclass" : "newobj",
									"numinlets" : 2,
									"numoutlets" : 2,
									"outlettype" : [ "signal", "bang" ],
									"patching_rect" : [ 269.0, 133.0, 56.0, 22.0 ],
									"text" : "line~ 0."
								}

							}
, 							{
								"box" : 								{
									"fontname" : "Arial",
									"fontsize" : 12.0,
									"id" : "obj-2",
									"maxclass" : "message",
									"numinlets" : 2,
									"numoutlets" : 1,
									"outlettype" : [ "" ],
									"patching_rect" : [ 269.0, 98.0, 45.0, 22.0 ],
									"text" : "$1 50"
								}

							}
, 							{
								"box" : 								{
									"fontname" : "Arial",
									"fontsize" : 12.0,
									"id" : "obj-3",
									"maxclass" : "message",
									"numinlets" : 2,
									"numoutlets" : 1,
									"outlettype" : [ "" ],
									"patching_rect" : [ 159.0, 133.0, 52.0, 22.0 ],
									"text" : "$1 200"
								}

							}
, 							{
								"box" : 								{
									"fontname" : "Arial",
									"fontsize" : 12.0,
									"id" : "obj-4",
									"maxclass" : "newobj",
									"numinlets" : 2,
									"numoutlets" : 1,
									"outlettype" : [ "signal" ],
									"patching_rect" : [ 256.0, 294.0, 32.0, 22.0 ],
									"text" : "*~"
								}

							}
, 							{
								"box" : 								{
									"comment" : "",
									"id" : "obj-5",
									"index" : 3,
									"maxclass" : "inlet",
									"numinlets" : 0,
									"numoutlets" : 1,
									"outlettype" : [ "" ],
									"patching_rect" : [ 269.0, 67.0, 20.0, 20.0 ]
								}

							}
, 							{
								"box" : 								{
									"comment" : "",
									"id" : "obj-6",
									"index" : 2,
									"maxclass" : "inlet",
									"numinlets" : 0,
									"numoutlets" : 1,
									"outlettype" : [ "" ],
									"patching_rect" : [ 159.0, 67.0, 20.0, 20.0 ]
								}

							}
, 							{
								"box" : 								{
									"comment" : "",
									"id" : "obj-7",
									"index" : 1,
									"maxclass" : "inlet",
									"numinlets" : 0,
									"numoutlets" : 1,
									"outlettype" : [ "signal" ],
									"patching_rect" : [ 83.0, 68.0, 20.0, 20.0 ]
								}

							}
, 							{
								"box" : 								{
									"comment" : "",
									"id" : "obj-8",
									"index" : 1,
									"maxclass" : "outlet",
									"numinlets" : 1,
									"numoutlets" : 0,
									"patching_rect" : [ 159.0, 340.0, 22.0, 22.0 ]
								}

							}
, 							{
								"box" : 								{
									"color" : [ 0.490196, 0.498039, 0.517647, 1.0 ],
									"fontname" : "Arial",
									"fontsize" : 12.0,
									"id" : "obj-9",
									"maxclass" : "newobj",
									"numinlets" : 1,
									"numoutlets" : 1,
									"outlettype" : [ "tapconnect" ],
									"patching_rect" : [ 83.0, 215.0, 81.0, 22.0 ],
									"text" : "tapin~ 1000"
								}

							}
, 							{
								"box" : 								{
									"color" : [ 0.490196, 0.498039, 0.517647, 1.0 ],
									"fontname" : "Arial",
									"fontsize" : 12.0,
									"id" : "obj-10",
									"maxclass" : "newobj",
									"numinlets" : 2,
									"numoutlets" : 2,
									"outlettype" : [ "signal", "bang" ],
									"patching_rect" : [ 159.0, 165.0, 37.0, 22.0 ],
									"text" : "line~"
								}

							}
, 							{
								"box" : 								{
									"color" : [ 0.490196, 0.498039, 0.517647, 1.0 ],
									"fontname" : "Arial",
									"fontsize" : 12.0,
									"id" : "obj-11",
									"maxclass" : "newobj",
									"numinlets" : 1,
									"numoutlets" : 1,
									"outlettype" : [ "signal" ],
									"patching_rect" : [ 159.0, 254.0, 74.0, 22.0 ],
									"text" : "tapout~ 700"
								}

							}
, 							{
								"box" : 								{
									"fontname" : "Arial",
									"fontsize" : 12.0,
									"id" : "obj-12",
									"maxclass" : "comment",
									"numinlets" : 1,
									"numoutlets" : 0,
									"patching_rect" : [ 62.0, 45.0, 59.0, 20.0 ],
									"text" : "signal in"
								}

							}
, 							{
								"box" : 								{
									"fontname" : "Arial",
									"fontsize" : 12.0,
									"id" : "obj-13",
									"maxclass" : "comment",
									"numinlets" : 1,
									"numoutlets" : 0,
									"patching_rect" : [ 119.0, 368.0, 131.0, 20.0 ],
									"text" : "processed signal out"
								}

							}
, 							{
								"box" : 								{
									"fontname" : "Arial",
									"fontsize" : 12.0,
									"id" : "obj-14",
									"maxclass" : "comment",
									"numinlets" : 1,
									"numoutlets" : 0,
									"patching_rect" : [ 130.0, 45.0, 86.0, 20.0 ],
									"text" : "delay time in"
								}

							}
, 							{
								"box" : 								{
									"fontname" : "Arial",
									"fontsize" : 12.0,
									"id" : "obj-15",
									"maxclass" : "comment",
									"numinlets" : 1,
									"numoutlets" : 0,
									"patching_rect" : [ 262.0, 45.0, 87.0, 20.0 ],
									"text" : "feedback gain"
								}

							}
 ],
						"lines" : [ 							{
								"patchline" : 								{
									"destination" : [ "obj-4", 1 ],
									"source" : [ "obj-1", 0 ]
								}

							}
, 							{
								"patchline" : 								{
									"destination" : [ "obj-11", 0 ],
									"source" : [ "obj-10", 0 ]
								}

							}
, 							{
								"patchline" : 								{
									"destination" : [ "obj-4", 0 ],
									"midpoints" : [ 168.5, 283.0, 265.5, 283.0 ],
									"order" : 0,
									"source" : [ "obj-11", 0 ]
								}

							}
, 							{
								"patchline" : 								{
									"destination" : [ "obj-8", 0 ],
									"order" : 1,
									"source" : [ "obj-11", 0 ]
								}

							}
, 							{
								"patchline" : 								{
									"destination" : [ "obj-1", 0 ],
									"source" : [ "obj-2", 0 ]
								}

							}
, 							{
								"patchline" : 								{
									"destination" : [ "obj-10", 0 ],
									"source" : [ "obj-3", 0 ]
								}

							}
, 							{
								"patchline" : 								{
									"destination" : [ "obj-9", 0 ],
									"midpoints" : [ 265.5, 321.0, 317.0, 321.0, 317.0, 199.0, 92.5, 199.0 ],
									"source" : [ "obj-4", 0 ]
								}

							}
, 							{
								"patchline" : 								{
									"destination" : [ "obj-2", 0 ],
									"source" : [ "obj-5", 0 ]
								}

							}
, 							{
								"patchline" : 								{
									"destination" : [ "obj-3", 0 ],
									"midpoints" : [ 168.5, 130.0, 168.5, 130.0 ],
									"source" : [ "obj-6", 0 ]
								}

							}
, 							{
								"patchline" : 								{
									"destination" : [ "obj-9", 0 ],
									"midpoints" : [ 92.5, 140.0, 92.5, 140.0 ],
									"source" : [ "obj-7", 0 ]
								}

							}
, 							{
								"patchline" : 								{
									"destination" : [ "obj-11", 0 ],
									"midpoints" : [ 92.5, 243.0, 168.5, 243.0 ],
									"source" : [ "obj-9", 0 ]
								}

							}
 ]
					}
,
					"patching_rect" : [ 208.5, 285.0, 182.0, 22.0 ],
					"saved_object_attributes" : 					{
						"description" : "",
						"digest" : "",
						"globalpatchername" : "",
						"tags" : ""
					}
,
					"text" : "p delay-process"
				}

			}
, 			{
				"box" : 				{
					"fontname" : "Arial",
					"fontsize" : 12.0,
					"id" : "obj-10",
					"maxclass" : "comment",
					"numinlets" : 1,
					"numoutlets" : 0,
					"patching_rect" : [ 290.0, 210.0, 40.0, 20.0 ],
					"text" : "delay"
				}

			}
, 			{
				"box" : 				{
					"fontname" : "Arial",
					"fontsize" : 12.0,
					"id" : "obj-27",
					"maxclass" : "comment",
					"numinlets" : 1,
					"numoutlets" : 0,
					"patching_rect" : [ 370.5, 211.0, 61.0, 20.0 ],
					"text" : "feedback"
				}

			}
, 			{
				"box" : 				{
					"bubble" : 1,
					"fontname" : "Arial",
					"fontsize" : 13.0,
					"id" : "obj-15",
					"linecount" : 2,
					"maxclass" : "comment",
					"numinlets" : 1,
					"numoutlets" : 0,
					"patching_rect" : [ 955.0, 569.0, 127.5, 40.0 ],
					"presentation_linecount" : 3,
					"text" : "map vizzie data to audio range"
				}

			}
, 			{
				"box" : 				{
					"basictuning" : 440,
					"data" : 					{
						"clips" : [ 							{
								"absolutepath" : "02 Kasino.mp3",
								"filename" : "02 Kasino.mp3",
								"filekind" : "audiofile",
								"id" : "u000013685",
								"loop" : 0,
								"content_state" : 								{

								}

							}
 ]
					}
,
					"followglobaltempo" : 0,
					"formantcorrection" : 0,
					"id" : "obj-14",
					"maxclass" : "playlist~",
					"mode" : "basic",
					"numinlets" : 1,
					"numoutlets" : 5,
					"originallength" : [ 0.0, "ticks" ],
					"originaltempo" : 120.0,
					"outlettype" : [ "signal", "signal", "signal", "", "dictionary" ],
					"parameter_enable" : 0,
					"patching_rect" : [ 163.0, 125.0, 150.0, 30.0 ],
					"pitchcorrection" : 0,
					"quality" : "basic",
					"timestretch" : [ 0 ]
				}

			}
, 			{
				"box" : 				{
					"annotation" : "## A Basis Function-based video generator ##",
					"bgmode" : 1,
					"border" : 0,
					"clickthrough" : 0,
					"enablehscroll" : 0,
					"enablevscroll" : 0,
					"id" : "obj-20",
					"lockeddragscroll" : 0,
					"maxclass" : "bpatcher",
					"name" : "vz.bfgener8r.maxpat",
					"numinlets" : 12,
					"numoutlets" : 1,
					"offset" : [ 0.0, 0.0 ],
					"outlettype" : [ "" ],
					"patching_rect" : [ 794.0, 201.5, 268.0, 234.0 ],
					"prototypename" : "pixl",
					"varname" : "bfgener8r",
					"viewvisibility" : 1
				}

			}
, 			{
				"box" : 				{
					"id" : "obj-12",
					"maxclass" : "newobj",
					"numinlets" : 1,
					"numoutlets" : 2,
					"outlettype" : [ "bang", "float" ],
					"patching_rect" : [ 794.0, 623.0, 29.5, 22.0 ],
					"text" : "t b f"
				}

			}
, 			{
				"box" : 				{
					"id" : "obj-11",
					"maxclass" : "newobj",
					"numinlets" : 6,
					"numoutlets" : 1,
					"outlettype" : [ "" ],
					"patching_rect" : [ 794.0, 585.0, 153.0, 22.0 ],
					"text" : "scale 0. 1. 20. 20000. 1000"
				}

			}
, 			{
				"box" : 				{
					"annotation" : "## Convert R, G, and B video components to VIZZIE data ##",
					"bgmode" : 1,
					"border" : 0,
					"clickthrough" : 0,
					"enablehscroll" : 0,
					"enablevscroll" : 0,
					"id" : "obj-16",
					"lockeddragscroll" : 0,
					"maxclass" : "bpatcher",
					"name" : "vz.analyzr.maxpat",
					"numinlets" : 5,
					"numoutlets" : 3,
					"offset" : [ 0.0, 0.0 ],
					"outlettype" : [ "", "", "" ],
					"patching_rect" : [ 794.0, 454.0, 208.0, 113.0 ],
					"prototypename" : "pixl",
					"varname" : "analyzr",
					"viewvisibility" : 1
				}

			}
, 			{
				"box" : 				{
					"fontname" : "Helvetica",
					"fontsize" : 30.0,
					"id" : "obj-2",
					"maxclass" : "comment",
					"numinlets" : 1,
					"numoutlets" : 0,
					"patching_rect" : [ 133.0, 77.0, 552.0, 36.0 ],
					"text" : "11 Video to Audio"
				}

			}
, 			{
				"box" : 				{
					"id" : "obj-60",
					"items" : [ "lowpass", ",", "highpass", ",", "bandpass", ",", "bandstop", ",", "allpass" ],
					"maxclass" : "umenu",
					"numinlets" : 1,
					"numoutlets" : 3,
					"outlettype" : [ "int", "", "" ],
					"parameter_enable" : 0,
					"patching_rect" : [ 370.5, 373.5, 83.5, 22.0 ]
				}

			}
, 			{
				"box" : 				{
					"fontface" : 0,
					"id" : "obj-45",
					"linmarkers" : [ 0.0, 11025.0, 16537.5 ],
					"logmarkers" : [ 0.0, 100.0, 1000.0, 10000.0 ],
					"maxclass" : "filtergraph~",
					"nfilters" : 1,
					"numinlets" : 8,
					"numoutlets" : 7,
					"outlettype" : [ "list", "float", "float", "float", "float", "list", "int" ],
					"parameter_enable" : 0,
					"patching_rect" : [ 370.5, 410.5, 291.999999999999886, 116.0 ],
					"setfilter" : [ 0, 1, 1, 0, 0, 102.641548156738281, 0.933783829212189, 1.47653865814209, 0.0, 0.0, 0.0, 0.0, 0.0, 0.0 ]
				}

			}
, 			{
				"box" : 				{
					"fontname" : "Arial",
					"fontsize" : 13.0,
					"hidden" : 1,
					"id" : "obj-46",
					"maxclass" : "message",
					"numinlets" : 2,
					"numoutlets" : 1,
					"outlettype" : [ "" ],
					"patching_rect" : [ 607.499999999999886, 344.0, 48.0, 23.0 ],
					"text" : "set $1"
				}

			}
, 			{
				"box" : 				{
					"fontname" : "Arial",
					"fontsize" : 13.0,
					"hidden" : 1,
					"id" : "obj-47",
					"maxclass" : "message",
					"numinlets" : 2,
					"numoutlets" : 1,
					"outlettype" : [ "" ],
					"patching_rect" : [ 542.0, 344.0, 48.0, 23.0 ],
					"text" : "set $1"
				}

			}
, 			{
				"box" : 				{
					"fontname" : "Arial",
					"fontsize" : 13.0,
					"hidden" : 1,
					"id" : "obj-48",
					"maxclass" : "message",
					"numinlets" : 2,
					"numoutlets" : 1,
					"outlettype" : [ "" ],
					"patching_rect" : [ 472.5, 344.0, 48.0, 23.0 ],
					"text" : "set $1"
				}

			}
, 			{
				"box" : 				{
					"bubble" : 1,
					"bubbleside" : 2,
					"fontname" : "Arial",
					"fontsize" : 13.0,
					"id" : "obj-71",
					"maxclass" : "comment",
					"numinlets" : 1,
					"numoutlets" : 0,
					"patching_rect" : [ 614.374999999999773, 333.5, 42.0, 40.0 ],
					"text" : "set Q"
				}

			}
, 			{
				"box" : 				{
					"fontname" : "Arial",
					"fontsize" : 13.0,
					"format" : 6,
					"id" : "obj-72",
					"maxclass" : "flonum",
					"numinlets" : 1,
					"numoutlets" : 2,
					"outlettype" : [ "", "bang" ],
					"parameter_enable" : 0,
					"patching_rect" : [ 607.499999999999886, 373.5, 55.0, 23.0 ]
				}

			}
, 			{
				"box" : 				{
					"fontname" : "Arial",
					"fontsize" : 13.0,
					"format" : 6,
					"id" : "obj-74",
					"maxclass" : "flonum",
					"numinlets" : 1,
					"numoutlets" : 2,
					"outlettype" : [ "", "bang" ],
					"parameter_enable" : 0,
					"patching_rect" : [ 542.0, 373.5, 55.0, 23.0 ]
				}

			}
, 			{
				"box" : 				{
					"fontname" : "Arial",
					"fontsize" : 13.0,
					"format" : 6,
					"id" : "obj-75",
					"maxclass" : "flonum",
					"numinlets" : 1,
					"numoutlets" : 2,
					"outlettype" : [ "", "bang" ],
					"parameter_enable" : 0,
					"patching_rect" : [ 472.5, 373.5, 57.0, 23.0 ]
				}

			}
, 			{
				"box" : 				{
					"bubble" : 1,
					"bubbleside" : 2,
					"fontname" : "Arial",
					"fontsize" : 13.0,
					"id" : "obj-82",
					"linecount" : 2,
					"maxclass" : "comment",
					"numinlets" : 1,
					"numoutlets" : 0,
					"patching_rect" : [ 456.875, 318.5, 82.0, 55.0 ],
					"text" : "set cutoff or center freq"
				}

			}
, 			{
				"box" : 				{
					"bubble" : 1,
					"bubbleside" : 2,
					"fontname" : "Arial",
					"fontsize" : 13.0,
					"id" : "obj-83",
					"maxclass" : "comment",
					"numinlets" : 1,
					"numoutlets" : 0,
					"patching_rect" : [ 542.0, 333.5, 59.0, 40.0 ],
					"text" : "set gain"
				}

			}
, 			{
				"box" : 				{
					"bubble" : 1,
					"bubblepoint" : 0.7,
					"bubbleside" : 2,
					"fontname" : "Arial",
					"fontsize" : 13.0,
					"id" : "obj-85",
					"maxclass" : "comment",
					"numinlets" : 1,
					"numoutlets" : 0,
					"patching_rect" : [ 337.5, 333.5, 114.0, 40.0 ],
					"text" : "set filter response"
				}

			}
, 			{
				"box" : 				{
					"bubble" : 1,
					"fontname" : "Arial",
					"fontsize" : 13.0,
					"id" : "obj-49",
					"linecount" : 2,
					"maxclass" : "comment",
					"numinlets" : 1,
					"numoutlets" : 0,
					"patching_rect" : [ 236.5, 404.0, 96.5, 40.0 ],
					"text" : "clear if filter blows up"
				}

			}
, 			{
				"box" : 				{
					"fontname" : "Arial",
					"fontsize" : 13.0,
					"id" : "obj-63",
					"maxclass" : "message",
					"numinlets" : 2,
					"numoutlets" : 1,
					"outlettype" : [ "" ],
					"patching_rect" : [ 191.0, 412.5, 43.0, 23.0 ],
					"text" : "clear"
				}

			}
, 			{
				"box" : 				{
					"fontname" : "Arial",
					"fontsize" : 13.0,
					"id" : "obj-50",
					"maxclass" : "newobj",
					"numinlets" : 6,
					"numoutlets" : 1,
					"outlettype" : [ "signal" ],
					"patching_rect" : [ 159.0, 454.0, 92.0, 23.0 ],
					"text" : "biquad~"
				}

			}
, 			{
				"box" : 				{
					"bubble" : 1,
					"bubbleside" : 3,
					"id" : "obj-42",
					"maxclass" : "comment",
					"numinlets" : 1,
					"numoutlets" : 0,
					"patching_rect" : [ 47.5, 628.5, 102.5, 24.0 ],
					"text" : "Turn on audio"
				}

			}
, 			{
				"box" : 				{
					"id" : "obj-9",
					"lastchannelcount" : 0,
					"maxclass" : "live.gain~",
					"numinlets" : 2,
					"numoutlets" : 5,
					"orientation" : 1,
					"outlettype" : [ "signal", "signal", "", "float", "list" ],
					"parameter_enable" : 1,
					"patching_rect" : [ 159.0, 554.5, 143.0, 47.0 ],
					"saved_attribute_attributes" : 					{
						"valueof" : 						{
							"parameter_shortname" : "live.gain~",
							"parameter_type" : 0,
							"parameter_unitstyle" : 4,
							"parameter_mmin" : -70.0,
							"parameter_longname" : "live.gain~",
							"parameter_mmax" : 6.0
						}

					}
,
					"varname" : "live.gain~"
				}

			}
, 			{
				"box" : 				{
					"id" : "obj-22",
					"maxclass" : "ezdac~",
					"numinlets" : 2,
					"numoutlets" : 0,
					"patching_rect" : [ 159.0, 615.5, 50.0, 50.0 ]
				}

			}
 ],
		"lines" : [ 			{
				"patchline" : 				{
					"destination" : [ "obj-12", 0 ],
					"source" : [ "obj-11", 0 ]
				}

			}
, 			{
				"patchline" : 				{
					"destination" : [ "obj-48", 0 ],
					"source" : [ "obj-12", 1 ]
				}

			}
, 			{
				"patchline" : 				{
					"destination" : [ "obj-75", 0 ],
					"source" : [ "obj-12", 0 ]
				}

			}
, 			{
				"patchline" : 				{
					"destination" : [ "obj-50", 0 ],
					"order" : 1,
					"source" : [ "obj-14", 0 ]
				}

			}
, 			{
				"patchline" : 				{
					"destination" : [ "obj-7", 0 ],
					"order" : 0,
					"source" : [ "obj-14", 0 ]
				}

			}
, 			{
				"patchline" : 				{
					"destination" : [ "obj-11", 0 ],
					"source" : [ "obj-16", 0 ]
				}

			}
, 			{
				"patchline" : 				{
					"destination" : [ "obj-7", 1 ],
					"source" : [ "obj-17", 0 ]
				}

			}
, 			{
				"patchline" : 				{
					"destination" : [ "obj-7", 2 ],
					"source" : [ "obj-19", 0 ]
				}

			}
, 			{
				"patchline" : 				{
					"destination" : [ "obj-16", 0 ],
					"source" : [ "obj-20", 0 ]
				}

			}
, 			{
				"patchline" : 				{
					"destination" : [ "obj-46", 0 ],
					"hidden" : 1,
					"source" : [ "obj-45", 3 ]
				}

			}
, 			{
				"patchline" : 				{
					"destination" : [ "obj-47", 0 ],
					"hidden" : 1,
					"source" : [ "obj-45", 2 ]
				}

			}
, 			{
				"patchline" : 				{
					"destination" : [ "obj-48", 0 ],
					"hidden" : 1,
					"source" : [ "obj-45", 1 ]
				}

			}
, 			{
				"patchline" : 				{
					"destination" : [ "obj-50", 0 ],
					"midpoints" : [ 380.0, 536.5, 320.0, 536.5, 320.0, 449.0, 168.5, 449.0 ],
					"source" : [ "obj-45", 0 ]
				}

			}
, 			{
				"patchline" : 				{
					"destination" : [ "obj-72", 0 ],
					"hidden" : 1,
					"source" : [ "obj-46", 0 ]
				}

			}
, 			{
				"patchline" : 				{
					"destination" : [ "obj-74", 0 ],
					"hidden" : 1,
					"source" : [ "obj-47", 0 ]
				}

			}
, 			{
				"patchline" : 				{
					"destination" : [ "obj-75", 0 ],
					"hidden" : 1,
					"source" : [ "obj-48", 0 ]
				}

			}
, 			{
				"patchline" : 				{
					"destination" : [ "obj-9", 1 ],
					"order" : 0,
					"source" : [ "obj-50", 0 ]
				}

			}
, 			{
				"patchline" : 				{
					"destination" : [ "obj-9", 0 ],
					"order" : 1,
					"source" : [ "obj-50", 0 ]
				}

			}
, 			{
				"patchline" : 				{
					"destination" : [ "obj-45", 0 ],
					"source" : [ "obj-60", 1 ]
				}

			}
, 			{
				"patchline" : 				{
					"destination" : [ "obj-50", 0 ],
					"source" : [ "obj-63", 0 ]
				}

			}
, 			{
				"patchline" : 				{
					"destination" : [ "obj-50", 0 ],
					"source" : [ "obj-7", 0 ]
				}

			}
, 			{
				"patchline" : 				{
					"destination" : [ "obj-45", 7 ],
					"source" : [ "obj-72", 0 ]
				}

			}
, 			{
				"patchline" : 				{
					"destination" : [ "obj-45", 6 ],
					"source" : [ "obj-74", 0 ]
				}

			}
, 			{
				"patchline" : 				{
					"destination" : [ "obj-45", 5 ],
					"source" : [ "obj-75", 0 ]
				}

			}
, 			{
				"patchline" : 				{
					"destination" : [ "obj-22", 1 ],
					"source" : [ "obj-9", 1 ]
				}

			}
, 			{
				"patchline" : 				{
					"destination" : [ "obj-22", 0 ],
					"source" : [ "obj-9", 0 ]
				}

			}
 ],
		"parameters" : 		{
			"obj-20::obj-21" : [ "Colorize", "", 0 ],
			"obj-20::obj-63" : [ "Zoom range[2]", "", 1 ],
			"obj-20::obj-85" : [ "pictctrl[6]", "", 0 ],
			"obj-20::obj-91::obj-5::obj-23" : [ "Gain[2]", "", 0 ],
			"obj-20::obj-8" : [ "pictctrl[30]", "", 0 ],
			"obj-20::obj-91::obj-4::obj-32" : [ "H value[1]", "", 0 ],
			"obj-16::obj-54" : [ "Blue mode", "", 0 ],
			"obj-20::obj-26" : [ "pictctrl[32]", "", 0 ],
			"obj-20::obj-91::obj-10::obj-11" : [ "Jitter[2]", "", 0 ],
			"obj-20::obj-61" : [ "Zoom hi", "", 1 ],
			"obj-20::obj-91::obj-11::obj-18" : [ "Smoothing", "", 0 ],
			"obj-20::obj-91::obj-5::obj-27" : [ "Lacunarity[2]", "", 0 ],
			"obj-20::obj-278" : [ "textbutton[3]", "", 0 ],
			"obj-20::obj-91::obj-4::obj-26" : [ "Offset[1]", "", 0 ],
			"obj-20::obj-46" : [ "pictctrl[27]", "", 0 ],
			"obj-20::obj-5" : [ "Function", "", 0 ],
			"obj-16::obj-50" : [ "pictctrl[22]", "", 0 ],
			"obj-16::obj-17" : [ "pictctrl[36]", "", 0 ],
			"obj-20::obj-91::obj-5::obj-25" : [ "Offset[2]", "", 0 ],
			"obj-20::obj-56" : [ "Gcolorize", "", 0 ],
			"obj-20::obj-59" : [ "pictctrl[106]", "", 0 ],
			"obj-9" : [ "live.gain~", "", 0 ],
			"obj-16::obj-65" : [ "pictctrl[84]", "", 0 ],
			"obj-20::obj-91::obj-15::obj-11" : [ "H value[4]", "", 0 ],
			"obj-16::obj-58" : [ "pictctrl[3]", "", 0 ],
			"obj-20::obj-91::obj-1::obj-28" : [ "Lacunarity", "", 0 ],
			"obj-20::obj-57" : [ "Rcolorize", "", 0 ],
			"obj-20::obj-91::obj-6::obj-29" : [ "Z crackle", "", 0 ],
			"obj-16::obj-48" : [ "Green mode", "", 0 ],
			"obj-20::obj-91::obj-3::obj-11" : [ "Distortion", "", 0 ],
			"obj-20::obj-91::obj-1::obj-24" : [ "Gain", "", 0 ],
			"obj-20::obj-91::obj-13::obj-11" : [ "Jitter", "", 0 ],
			"obj-20::obj-91::obj-10::obj-19" : [ "Amount", "", 0 ],
			"obj-20::obj-91::obj-12::obj-23" : [ "Gain[3]", "", 0 ],
			"obj-20::obj-15" : [ "pictctrl[5]", "", 0 ],
			"obj-20::obj-91::obj-5::obj-31" : [ "H value[2]", "", 0 ],
			"obj-16::obj-1" : [ "textbutton[2]", "", 0 ],
			"obj-20::obj-91::obj-9::obj-11" : [ "Jitter[3]", "", 0 ],
			"obj-20::obj-91::obj-6::obj-24" : [ "X crackle", "", 0 ],
			"obj-20::obj-91::obj-12::obj-27" : [ "Lacunarity[3]", "", 0 ],
			"obj-20::obj-78" : [ "Zoom lo", "", 1 ],
			"obj-20::obj-91::obj-4::obj-24" : [ "Gain[1]", "", 0 ],
			"obj-20::obj-23" : [ "pictctrl[33]", "", 0 ],
			"obj-16::obj-44" : [ "Red mode", "", 0 ],
			"obj-16::obj-6" : [ "pictctrl[37]", "", 0 ],
			"obj-20::obj-91::obj-1::obj-32" : [ "H value", "", 0 ],
			"obj-20::obj-37" : [ "pictctrl[28]", "", 0 ],
			"obj-16::obj-2::obj-23" : [ "gswitch2[2]", "", 0 ],
			"obj-20::obj-76" : [ "pictctrl[29]", "", 0 ],
			"obj-20::obj-91::obj-11::obj-11" : [ "Jitter[1]", "", 0 ],
			"obj-16::obj-46" : [ "pictctrl[34]", "", 0 ],
			"obj-20::obj-91::obj-9::obj-16" : [ "Shading", "", 0 ],
			"obj-20::obj-91::obj-4::obj-28" : [ "Lacunarity[1]", "", 0 ],
			"obj-20::obj-91::obj-1::obj-26" : [ "Offset", "", 0 ],
			"obj-20::obj-104" : [ "pictctrl[148]", "", 0 ],
			"obj-20::obj-100" : [ "Speed", "", 1 ],
			"obj-20::obj-91::obj-12::obj-25" : [ "Offset[3]", "", 0 ],
			"obj-20::obj-17" : [ "pictctrl[31]", "", 0 ],
			"obj-20::obj-55" : [ "Bcolorize", "", 0 ],
			"obj-16::obj-19" : [ "pictctrl[35]", "", 0 ],
			"obj-20::obj-91::obj-15::obj-19" : [ "Gain[4]", "", 0 ],
			"obj-20::obj-91::obj-12::obj-31" : [ "H value[3]", "", 0 ],
			"obj-20::obj-96" : [ "pictctrl[4]", "", 0 ],
			"obj-20::obj-91::obj-6::obj-11" : [ "Jitter[4]", "", 0 ],
			"obj-20::obj-91::obj-15::obj-18" : [ "Offset[4]", "", 0 ],
			"obj-20::obj-91::obj-6::obj-28" : [ "Y crackle", "", 0 ],
			"obj-20::obj-91::obj-15::obj-16" : [ "Lacunarity[4]", "", 0 ],
			"parameterbanks" : 			{

			}
,
			"parameter_overrides" : 			{
				"obj-20::obj-85" : 				{
					"parameter_longname" : "pictctrl[6]"
				}
,
				"obj-20::obj-91::obj-5::obj-23" : 				{
					"parameter_longname" : "Gain[2]"
				}
,
				"obj-20::obj-91::obj-4::obj-32" : 				{
					"parameter_longname" : "H value[1]"
				}
,
				"obj-20::obj-91::obj-10::obj-11" : 				{
					"parameter_longname" : "Jitter[2]"
				}
,
				"obj-20::obj-91::obj-5::obj-27" : 				{
					"parameter_longname" : "Lacunarity[2]"
				}
,
				"obj-20::obj-91::obj-4::obj-26" : 				{
					"parameter_longname" : "Offset[1]"
				}
,
				"obj-16::obj-50" : 				{
					"parameter_longname" : "pictctrl[22]"
				}
,
				"obj-20::obj-91::obj-5::obj-25" : 				{
					"parameter_longname" : "Offset[2]"
				}
,
				"obj-20::obj-91::obj-15::obj-11" : 				{
					"parameter_longname" : "H value[4]"
				}
,
				"obj-16::obj-58" : 				{
					"parameter_longname" : "pictctrl[3]"
				}
,
				"obj-20::obj-91::obj-12::obj-23" : 				{
					"parameter_longname" : "Gain[3]"
				}
,
				"obj-20::obj-15" : 				{
					"parameter_longname" : "pictctrl[5]"
				}
,
				"obj-20::obj-91::obj-5::obj-31" : 				{
					"parameter_longname" : "H value[2]"
				}
,
				"obj-20::obj-91::obj-9::obj-11" : 				{
					"parameter_longname" : "Jitter[3]"
				}
,
				"obj-20::obj-91::obj-12::obj-27" : 				{
					"parameter_longname" : "Lacunarity[3]"
				}
,
				"obj-20::obj-91::obj-4::obj-24" : 				{
					"parameter_longname" : "Gain[1]"
				}
,
				"obj-20::obj-91::obj-11::obj-11" : 				{
					"parameter_longname" : "Jitter[1]"
				}
,
				"obj-20::obj-91::obj-4::obj-28" : 				{
					"parameter_longname" : "Lacunarity[1]"
				}
,
				"obj-20::obj-91::obj-12::obj-25" : 				{
					"parameter_longname" : "Offset[3]"
				}
,
				"obj-20::obj-91::obj-15::obj-19" : 				{
					"parameter_longname" : "Gain[4]"
				}
,
				"obj-20::obj-91::obj-12::obj-31" : 				{
					"parameter_longname" : "H value[3]"
				}
,
				"obj-20::obj-96" : 				{
					"parameter_longname" : "pictctrl[4]"
				}
,
				"obj-20::obj-91::obj-6::obj-11" : 				{
					"parameter_longname" : "Jitter[4]"
				}
,
				"obj-20::obj-91::obj-15::obj-18" : 				{
					"parameter_longname" : "Offset[4]"
				}
,
				"obj-20::obj-91::obj-15::obj-16" : 				{
					"parameter_longname" : "Lacunarity[4]"
				}

			}

		}
,
		"dependency_cache" : [ 			{
				"name" : "11_video-to-audio.maxsnap",
				"bootpath" : "~/Documents/Max 8/Snapshots",
				"patcherrelativepath" : "../../../Snapshots",
				"type" : "mx@s",
				"implicit" : 1
			}
, 			{
				"name" : "vz.analyzr.maxpat",
				"bootpath" : "~/Documents/Max 8/Packages/Vizzie/patchers",
				"patcherrelativepath" : "../../../Packages/Vizzie/patchers",
				"type" : "JSON",
				"implicit" : 1
			}
, 			{
				"name" : "video-handler.maxpat",
				"bootpath" : "~/Documents/Max 8/Packages/Vizzie/patchers/utils",
				"patcherrelativepath" : "../../../Packages/Vizzie/patchers/utils",
				"type" : "JSON",
				"implicit" : 1
			}
, 			{
				"name" : "vzgl-outputdim.maxpat",
				"bootpath" : "~/Documents/Max 8/Packages/Vizzie/patchers/utils",
				"patcherrelativepath" : "../../../Packages/Vizzie/patchers/utils",
				"type" : "JSON",
				"implicit" : 1
			}
, 			{
				"name" : "data-handler.maxpat",
				"bootpath" : "~/Documents/Max 8/Packages/Vizzie/patchers/utils",
				"patcherrelativepath" : "../../../Packages/Vizzie/patchers/utils",
				"type" : "JSON",
				"implicit" : 1
			}
, 			{
				"name" : "vzgl-object.maxpat",
				"bootpath" : "~/Documents/Max 8/Packages/Vizzie/patchers/utils",
				"patcherrelativepath" : "../../../Packages/Vizzie/patchers/utils",
				"type" : "JSON",
				"implicit" : 1
			}
, 			{
				"name" : "vizzie-global.js",
				"bootpath" : "~/Documents/Max 8/Packages/Vizzie/code",
				"patcherrelativepath" : "../../../Packages/Vizzie/code",
				"type" : "TEXT",
				"implicit" : 1
			}
, 			{
				"name" : "exact_menu.maxpat",
				"bootpath" : "~/Documents/Max 8/Packages/Vizzie/patchers/utils",
				"patcherrelativepath" : "../../../Packages/Vizzie/patchers/utils",
				"type" : "JSON",
				"implicit" : 1
			}
, 			{
				"name" : "vz.bfgener8r.maxpat",
				"bootpath" : "~/Documents/Max 8/Packages/Vizzie/patchers",
				"patcherrelativepath" : "../../../Packages/Vizzie/patchers",
				"type" : "JSON",
				"implicit" : 1
			}
, 			{
				"name" : "data-handler-L.maxpat",
				"bootpath" : "~/Documents/Max 8/Packages/Vizzie/patchers/utils",
				"patcherrelativepath" : "../../../Packages/Vizzie/patchers/utils",
				"type" : "JSON",
				"implicit" : 1
			}
, 			{
				"name" : "bfgenerator_UI.maxpat",
				"bootpath" : "~/Documents/Max 8/Packages/Vizzie/patchers/bfg",
				"patcherrelativepath" : "../../../Packages/Vizzie/patchers/bfg",
				"type" : "JSON",
				"implicit" : 1
			}
, 			{
				"name" : "distorted_controls.maxpat",
				"bootpath" : "~/Documents/Max 8/Packages/Vizzie/patchers/bfg",
				"patcherrelativepath" : "../../../Packages/Vizzie/patchers/bfg",
				"type" : "JSON",
				"implicit" : 1
			}
, 			{
				"name" : "noise_voronoi_controls.maxpat",
				"bootpath" : "~/Documents/Max 8/Packages/Vizzie/patchers/bfg",
				"patcherrelativepath" : "../../../Packages/Vizzie/patchers/bfg",
				"type" : "JSON",
				"implicit" : 1
			}
, 			{
				"name" : "noise_voronoi_smooth_controls.maxpat",
				"bootpath" : "~/Documents/Max 8/Packages/Vizzie/patchers/bfg",
				"patcherrelativepath" : "../../../Packages/Vizzie/patchers/bfg",
				"type" : "JSON",
				"implicit" : 1
			}
, 			{
				"name" : "noise_voronoise_controls.maxpat",
				"bootpath" : "~/Documents/Max 8/Packages/Vizzie/patchers/bfg",
				"patcherrelativepath" : "../../../Packages/Vizzie/patchers/bfg",
				"type" : "JSON",
				"implicit" : 1
			}
, 			{
				"name" : "noise_voronoi_id_controls.maxpat",
				"bootpath" : "~/Documents/Max 8/Packages/Vizzie/patchers/bfg",
				"patcherrelativepath" : "../../../Packages/Vizzie/patchers/bfg",
				"type" : "JSON",
				"implicit" : 1
			}
, 			{
				"name" : "noise_voronoi_crackle_controls.maxpat",
				"bootpath" : "~/Documents/Max 8/Packages/Vizzie/patchers/bfg",
				"patcherrelativepath" : "../../../Packages/Vizzie/patchers/bfg",
				"type" : "JSON",
				"implicit" : 1
			}
, 			{
				"name" : "fractal_rigid_controls.maxpat",
				"bootpath" : "~/Documents/Max 8/Packages/Vizzie/patchers/bfg",
				"patcherrelativepath" : "../../../Packages/Vizzie/patchers/bfg",
				"type" : "JSON",
				"implicit" : 1
			}
, 			{
				"name" : "fractal_hybrid_controls.maxpat",
				"bootpath" : "~/Documents/Max 8/Packages/Vizzie/patchers/bfg",
				"patcherrelativepath" : "../../../Packages/Vizzie/patchers/bfg",
				"type" : "JSON",
				"implicit" : 1
			}
, 			{
				"name" : "fractal_fbm_controls.maxpat",
				"bootpath" : "~/Documents/Max 8/Packages/Vizzie/patchers/bfg",
				"patcherrelativepath" : "../../../Packages/Vizzie/patchers/bfg",
				"type" : "JSON",
				"implicit" : 1
			}
, 			{
				"name" : "fractal_multi_controls.maxpat",
				"bootpath" : "~/Documents/Max 8/Packages/Vizzie/patchers/bfg",
				"patcherrelativepath" : "../../../Packages/Vizzie/patchers/bfg",
				"type" : "JSON",
				"implicit" : 1
			}
, 			{
				"name" : "fractal_hetero_controls.maxpat",
				"bootpath" : "~/Documents/Max 8/Packages/Vizzie/patchers/bfg",
				"patcherrelativepath" : "../../../Packages/Vizzie/patchers/bfg",
				"type" : "JSON",
				"implicit" : 1
			}
, 			{
				"name" : "vzgl-blackframe.maxpat",
				"bootpath" : "~/Documents/Max 8/Packages/Vizzie/patchers/utils",
				"patcherrelativepath" : "../../../Packages/Vizzie/patchers/utils",
				"type" : "JSON",
				"implicit" : 1
			}
, 			{
				"name" : "lo_hi_UI_control.maxpat",
				"bootpath" : "~/Documents/Max 8/Packages/Vizzie/patchers/utils",
				"patcherrelativepath" : "../../../Packages/Vizzie/patchers/utils",
				"type" : "JSON",
				"implicit" : 1
			}
, 			{
				"name" : "02 Kasino.mp3",
				"bootpath" : "~/Documents/Max 8/Library/aaa/workbook/media/songs",
				"patcherrelativepath" : "./media/songs",
				"type" : "Mp3",
				"implicit" : 1
			}
, 			{
				"name" : "jit.mo.time.mxo",
				"type" : "iLaX"
			}
 ],
		"autosave" : 0,
		"snapshot" : 		{
			"filetype" : "C74Snapshot",
			"version" : 2,
			"minorversion" : 0,
			"name" : "snapshotlist",
			"origin" : "jpatcher",
			"type" : "list",
			"subtype" : "Undefined",
			"embed" : 1,
			"snapshot" : 			{
				"valuedictionary" : 				{
					"parameter_values" : 					{
						"Amount" : 0.0,
						"Bcolorize" : 2.0,
						"Blue mode" : 0.0,
						"Colorize" : 1.0,
						"Distortion" : 1.0,
						"Function" : 1.0,
						"Gain" : 1.5,
						"Gain[1]" : 0.0,
						"Gain[2]" : 0.0,
						"Gain[3]" : 0.0,
						"Gain[4]" : 0.0,
						"Gcolorize" : 1.0,
						"Green mode" : 0.0,
						"H value" : 0.25,
						"H value[1]" : 0.25,
						"H value[2]" : 0.5,
						"H value[3]" : 1.5,
						"H value[4]" : 0.5,
						"Jitter" : 0.5,
						"Jitter[1]" : 0.5,
						"Jitter[2]" : 0.5,
						"Jitter[3]" : 0.5,
						"Jitter[4]" : 0.0,
						"Lacunarity" : 2.0,
						"Lacunarity[1]" : 3.0,
						"Lacunarity[2]" : 2.0,
						"Lacunarity[3]" : 1.5,
						"Lacunarity[4]" : 2.0,
						"Offset" : 0.9,
						"Offset[1]" : 0.25,
						"Offset[2]" : 0.0,
						"Offset[3]" : 1.5,
						"Offset[4]" : 0.05,
						"Rcolorize" : 0.661417322834645,
						"Red mode" : 0.0,
						"Shading" : 0.5,
						"Smoothing" : 16.0,
						"X crackle" : 8.0,
						"Y crackle" : 2.0,
						"Z crackle" : 0.5,
						"gswitch2[2]" : 1.0,
						"live.gain~" : -6.324926181102356,
						"Speed" : 1.889763779527557,
						"Zoom hi" : -4.795275590551167,
						"Zoom lo" : -0.732283464566927,
						"blob" : 						{
							"textbutton[2]" : [ 1 ],
							"textbutton[3]" : [ 1 ],
							"Zoom range[2]" : [ 0 ]
						}

					}

				}

			}
,
			"snapshotlist" : 			{
				"current_snapshot" : 0,
				"entries" : [ 					{
						"filetype" : "C74Snapshot",
						"version" : 2,
						"minorversion" : 0,
						"name" : "11_video-to-audio",
						"origin" : "11_video-to-audio",
						"type" : "patcher",
						"subtype" : "Undefined",
						"embed" : 0,
						"snapshot" : 						{
							"valuedictionary" : 							{
								"parameter_values" : 								{
									"Amount" : 0.0,
									"Bcolorize" : 2.0,
									"Blue mode" : 0.0,
									"Colorize" : 1.0,
									"Distortion" : 1.0,
									"Function" : 1.0,
									"Gain" : 1.5,
									"Gain[1]" : 0.0,
									"Gain[2]" : 0.0,
									"Gain[3]" : 0.0,
									"Gain[4]" : 0.0,
									"Gcolorize" : 1.0,
									"Green mode" : 0.0,
									"H value" : 0.25,
									"H value[1]" : 0.25,
									"H value[2]" : 0.5,
									"H value[3]" : 1.5,
									"H value[4]" : 0.5,
									"Jitter" : 0.5,
									"Jitter[1]" : 0.5,
									"Jitter[2]" : 0.5,
									"Jitter[3]" : 0.5,
									"Jitter[4]" : 0.0,
									"Lacunarity" : 2.0,
									"Lacunarity[1]" : 3.0,
									"Lacunarity[2]" : 2.0,
									"Lacunarity[3]" : 1.5,
									"Lacunarity[4]" : 2.0,
									"Offset" : 0.9,
									"Offset[1]" : 0.25,
									"Offset[2]" : 0.0,
									"Offset[3]" : 1.5,
									"Offset[4]" : 0.05,
									"Rcolorize" : 0.661417322834645,
									"Red mode" : 0.0,
									"Shading" : 0.5,
									"Smoothing" : 16.0,
									"X crackle" : 8.0,
									"Y crackle" : 2.0,
									"Z crackle" : 0.5,
									"gswitch2[2]" : 1.0,
									"live.gain~" : -6.324926181102356,
									"Speed" : 1.889763779527557,
									"Zoom hi" : -4.795275590551167,
									"Zoom lo" : -0.732283464566927,
									"blob" : 									{
										"textbutton[2]" : [ 1 ],
										"textbutton[3]" : [ 1 ],
										"Zoom range[2]" : [ 0 ]
									}

								}

							}

						}
,
						"fileref" : 						{
							"name" : "11_video-to-audio",
							"filename" : "11_video-to-audio.maxsnap",
							"filepath" : "~/Documents/Max 8/Snapshots",
							"filepos" : -1,
							"snapshotfileid" : "c5211fa6d536bde5d534c2251942ef58"
						}

					}
 ]
			}

		}

	}

}
